<svg width="236" height="236" viewBox="0 0 236 236" fill="none" xmlns="http://www.w3.org/2000/svg">
<defs>
<linearGradient id="pb_paper" x1="60" y1="18" x2="180" y2="214" gradientUnits="userSpaceOnUse"><stop offset="0" stop-color="#ffffff"/><stop offset="0.6" stop-color="#f2f7fa"/><stop offset="1" stop-color="#dde9f1"/></linearGradient>
<linearGradient id="pb_side" x1="0" y1="196" x2="0" y2="224" gradientUnits="userSpaceOnUse"><stop offset="0" stop-color="#93b4c6"/><stop offset="1" stop-color="#6f97ad"/></linearGradient>
<linearGradient id="pb_fold" x1="150" y1="18" x2="194" y2="62" gradientUnits="userSpaceOnUse"><stop offset="0" stop-color="#e6f0f5"/><stop offset="1" stop-color="#aecbdb"/></linearGradient>
<radialGradient id="pb_bloom" cx="70" cy="30" r="170" gradientUnits="userSpaceOnUse"><stop offset="0" stop-color="white" stop-opacity="0.5"/><stop offset="1" stop-color="white" stop-opacity="0"/></radialGradient>
<clipPath id="pb_clip"><path d="M60 18H150L194 62V196Q194 214 176 214H60Q42 214 42 196V36Q42 18 60 18Z"/></clipPath>
<filter id="pb_shadow" x="-20" y="-20" width="276" height="276" filterUnits="userSpaceOnUse" color-interpolation-filters="sRGB"><feDropShadow dx="0" dy="5" stdDeviation="6" flood-color="#1a3342" flood-opacity="0.4"/></filter>
<filter id="pb_fold_shadow" x="-20" y="-20" width="276" height="276" filterUnits="userSpaceOnUse"><feDropShadow dx="0" dy="3" stdDeviation="3" flood-color="#3d7a94" flood-opacity="0.35"/></filter>
<filter id="pb_card_shadow" x="-20" y="-20" width="276" height="276" filterUnits="userSpaceOnUse"><feDropShadow dx="0" dy="3" stdDeviation="3.5" flood-color="#5b2a9e" flood-opacity="0.38"/></filter>
<linearGradient id="pb_card" x1="56" y1="70" x2="180" y2="136" gradientUnits="userSpaceOnUse"><stop offset="0" stop-color="#c77dff"/><stop offset="0.55" stop-color="#9b4dea"/><stop offset="1" stop-color="#6a2bc8"/></linearGradient>
<linearGradient id="pb_hill" x1="0" y1="100" x2="0" y2="136" gradientUnits="userSpaceOnUse"><stop offset="0" stop-color="#ffffff"/><stop offset="1" stop-color="#ead6ff"/></linearGradient>
<clipPath id="pb_card_clip"><rect x="56" y="70" width="124" height="66" rx="11"/></clipPath>
</defs>
<g filter="url(#pb_shadow)">
<path d="M60 18H150L194 62V196Q194 214 176 214H60Q42 214 42 196V36Q42 18 60 18Z" fill="url(#pb_side)" transform="translate(0 10)"/>
<path d="M60 18H150L194 62V196Q194 214 176 214H60Q42 214 42 196V36Q42 18 60 18Z" fill="url(#pb_paper)"/>
</g>
<g clip-path="url(#pb_clip)"><rect width="236" height="236" fill="url(#pb_bloom)"/></g>
<path d="M60 18H150L194 62V196Q194 214 176 214H60Q42 214 42 196V36Q42 18 60 18Z" stroke="white" stroke-opacity="0.8" stroke-width="4" clip-path="url(#pb_clip)"/>
<g filter="url(#pb_fold_shadow)"><path d="M150 18V50Q150 62 162 62H194Z" fill="url(#pb_fold)" stroke="url(#pb_fold)" stroke-width="2" stroke-linejoin="round"/></g>
<rect x="60" y="34" width="70" height="13" rx="6.5" fill="#6a2bc8"/>
<rect x="60" y="53" width="44" height="7" rx="3.5" fill="#b98cf0" opacity="0.9"/>
<g filter="url(#pb_card_shadow)"><rect x="56" y="70" width="124" height="66" rx="11" fill="url(#pb_card)"/></g>
<g clip-path="url(#pb_card_clip)">
<circle cx="150" cy="92" r="10" fill="#ffe08a"/>
<path d="M56 136L92 100L112 118L128 104L180 136Z" fill="url(#pb_hill)" opacity="0.95"/>
</g>
<rect x="56.5" y="70.5" width="123" height="65" rx="10.5" stroke="white" stroke-opacity="0.35"/>
<rect x="60" y="150" width="54" height="8" rx="4" fill="#c7a6f3" opacity="0.95"/>
<rect x="60" y="166" width="54" height="8" rx="4" fill="#c7a6f3" opacity="0.95"/>
<rect x="60" y="182" width="40" height="8" rx="4" fill="#c7a6f3" opacity="0.95"/>
<rect x="122" y="150" width="54" height="8" rx="4" fill="#c7a6f3" opacity="0.95"/>
<rect x="122" y="166" width="54" height="8" rx="4" fill="#c7a6f3" opacity="0.95"/>
<rect x="122" y="182" width="46" height="8" rx="4" fill="#c7a6f3" opacity="0.95"/>
</svg>
